<svg width="25" height="23" viewBox="0 0 25 23" fill="none" xmlns="http://www.w3.org/2000/svg">
<path d="M0.695007 17.1876C0.695007 16.8476 0.695007 16.4976 0.695007 16.1576C0.705007 16.1076 0.725008 16.0576 0.735008 15.9976C0.965008 14.0876 1.86501 12.5876 3.42501 11.4676C3.55501 11.3776 3.60501 11.2876 3.60501 11.1276C3.60501 8.60756 3.60501 6.09756 3.60501 3.57756C3.60501 3.48756 3.60501 3.39756 3.60501 3.28756H6.42501C6.42501 3.01756 6.42501 2.75756 6.42501 2.49756C6.46501 1.41756 7.36501 0.517562 8.45501 0.477562C9.65501 0.437562 10.625 1.36756 10.645 2.56756C10.645 2.80756 10.645 3.04756 10.645 3.27756H12.055C12.055 3.00756 12.055 2.74756 12.055 2.49756C12.095 1.40756 13.005 0.507562 14.105 0.477562C15.285 0.447562 16.255 1.37756 16.275 2.56756C16.275 2.80756 16.275 3.04756 16.275 3.27756H17.685C17.685 3.00756 17.685 2.75756 17.685 2.49756C17.725 1.40756 18.635 0.497562 19.735 0.477562C20.915 0.447562 21.885 1.37756 21.905 2.56756C21.905 2.80756 21.905 3.04756 21.905 3.29756H24.705V20.1776H24.415C20.455 20.1776 16.505 20.1776 12.545 20.1776C12.355 20.1776 12.255 20.2376 12.145 20.3876C10.955 21.9776 9.375 22.8576 7.395 22.9876C4.535 23.1676 1.92501 21.3776 1.03501 18.6676C0.875011 18.1876 0.815009 17.6876 0.705009 17.1876H0.695007ZM23.295 8.94756H5.02501V10.6476C7.49501 9.95756 9.71501 10.3976 11.525 12.2476C13.335 14.0876 13.745 16.3076 13.025 18.7776H23.295V8.95756V8.94756ZM7.03501 11.7476C4.32501 11.7476 2.11501 13.9476 2.10501 16.6576C2.10501 19.3676 4.30501 21.5876 7.01501 21.5976C9.73501 21.5976 11.955 19.3876 11.955 16.6676C11.955 13.9576 9.74501 11.7476 7.03501 11.7476ZM5.02501 7.50756H23.285V4.71756H19.075V6.09756H17.665V4.72756H13.445V6.10756H12.045V4.72756H7.825V6.09756H6.41501V4.71756H5.02501V7.50756ZM9.23501 3.28756C9.23501 3.02756 9.23501 2.79756 9.23501 2.55756C9.21501 2.20756 8.94501 1.92756 8.59501 1.88756C8.25501 1.85756 7.91501 2.07756 7.85501 2.42756C7.81501 2.70756 7.85501 2.99756 7.85501 3.27756H9.24501L9.23501 3.28756ZM14.865 3.28756C14.865 3.03756 14.865 2.80756 14.865 2.58756C14.855 2.21756 14.575 1.92756 14.225 1.89756C13.885 1.86756 13.545 2.08756 13.485 2.43756C13.445 2.71756 13.485 3.00756 13.485 3.28756H14.875H14.865ZM20.495 3.28756C20.495 3.02756 20.495 2.79756 20.495 2.56756C20.475 2.20756 20.195 1.91756 19.835 1.89756C19.495 1.87756 19.155 2.10756 19.105 2.45756C19.065 2.72756 19.105 3.00756 19.105 3.28756H20.495Z" fill="#C4C6CF"/>
<path d="M17.655 11.7275H14.865V10.3475H17.655V11.7275Z" fill="#C4C6CF"/>
<path d="M21.885 10.3575V11.7275H19.095V10.3575H21.885Z" fill="#C4C6CF"/>
<path d="M14.875 13.1576H17.655V14.5376H14.875V13.1576Z" fill="#C4C6CF"/>
<path d="M19.095 13.1576H21.875V14.5476H19.095V13.1576Z" fill="#C4C6CF"/>
<path d="M17.655 17.3575H14.865V15.9775H17.655V17.3575Z" fill="#C4C6CF"/>
<path d="M21.875 17.3575H19.085V15.9775H21.875V17.3575Z" fill="#C4C6CF"/>
<path d="M9.12501 17.3576H6.34501V13.1576H7.72501V15.9476H9.12501V17.3476V17.3576Z" fill="#C4C6CF"/>
</svg>
