<svg width="26" height="26" viewBox="0 0 26 26" fill="none" xmlns="http://www.w3.org/2000/svg">
<path d="M0.902405 15.3502C0.982405 14.9602 1.0424 14.5702 1.1624 14.1903C1.4324 13.2803 1.9424 12.5203 2.6124 11.8503C4.0524 10.4104 5.4924 8.97039 6.9324 7.53042C8.5324 5.93046 10.1324 4.3305 11.7324 2.73054C12.5324 1.93056 13.4624 1.36057 14.5924 1.14058C16.5624 0.760584 18.3024 1.27057 19.6624 2.73054C21.2024 4.3705 21.5524 6.31045 20.8024 8.4404C20.5324 9.20038 20.0724 9.85036 19.5024 10.4204C16.4424 13.4903 13.3824 16.5702 10.3124 19.6301C8.43239 21.5001 5.66239 21.8201 3.42239 20.4101C2.00239 19.5101 1.20239 18.1902 0.952393 16.5302C0.942393 16.4502 0.922405 16.3702 0.902405 16.2802C0.902405 15.9702 0.902405 15.6602 0.902405 15.3402V15.3502ZM7.5224 8.4704C7.4924 8.5204 7.45239 8.60039 7.3924 8.66039C6.6524 9.40037 5.91239 10.1404 5.17239 10.8803C4.47239 11.5903 3.7424 12.2703 3.0724 13.0203C1.3224 14.9802 1.8424 18.2002 4.1124 19.5301C5.9124 20.5901 8.0524 20.3101 9.5424 18.8201C10.8924 17.4802 12.2324 16.1302 13.5724 14.7802C13.6224 14.7302 13.6624 14.6802 13.7124 14.6302C11.6524 12.5803 9.6124 10.5503 7.5224 8.4704ZM14.5324 13.8003C14.5324 13.8003 14.5724 13.7703 14.5924 13.7503C15.9824 12.3603 17.3724 10.9703 18.7524 9.57037C19.4224 8.89039 19.8224 8.07041 19.9724 7.12043C20.2524 5.30047 19.2624 3.40052 17.6024 2.61054C15.8524 1.78056 13.9424 2.11055 12.5624 3.48052C11.2124 4.82049 9.8724 6.17045 8.5224 7.52042C8.4724 7.57042 8.43239 7.62042 8.3924 7.66042C10.4424 9.70037 12.4724 11.7403 14.5224 13.7903L14.5324 13.8003Z" fill="#B3B9C4" stroke="#B3B9C4" stroke-width="0.3"/>
<path d="M18.9324 25C18.4624 24.88 17.9824 24.82 17.5324 24.64C15.5624 23.85 14.3524 22.4101 14.0624 20.3001C13.6924 17.5902 15.2424 15.1402 17.8624 14.3503C19.9824 13.7103 21.8824 14.2303 23.3924 15.8502C24.8924 17.4702 25.2824 19.3901 24.5124 21.4501C23.7624 23.46 22.2524 24.6 20.1324 24.94C20.0524 24.95 19.9824 24.97 19.9024 24.99H18.9224L18.9324 25ZM16.8524 22.9801C18.4024 24.24 20.9624 24.21 22.5624 22.5301C24.2224 20.7901 23.9924 18.2702 22.8624 16.9702C20.8624 18.9701 18.8624 20.9701 16.8524 22.9801ZM22.0324 16.1202C20.4224 14.8103 17.8624 15.0002 16.3624 16.5402C14.7524 18.2002 14.8124 20.6601 16.0024 22.1401C18.0124 20.1401 20.0124 18.1402 22.0324 16.1202Z" fill="#B3B9C4" stroke="#B3B9C4" stroke-width="0.3"/>
<path d="M12.1624 8.01056C11.8424 8.01056 11.6724 7.91056 11.5724 7.71056C11.4824 7.52056 11.4824 7.33056 11.6024 7.16056C11.6424 7.10056 11.7024 7.04056 11.7524 6.98056C12.3424 6.40056 12.9324 5.82056 13.5224 5.24056C13.6224 5.15056 13.7424 5.06056 13.8724 5.02056C14.1024 4.95056 14.3024 5.03056 14.4424 5.23056C14.5824 5.43056 14.5924 5.64056 14.4624 5.84056C14.4124 5.91056 14.3624 5.98056 14.3024 6.04056C13.7124 6.62056 13.1324 7.21056 12.5324 7.78056C12.4124 7.90056 12.2424 7.97056 12.1624 8.01056Z" fill="#B3B9C4" stroke="#B3B9C4" stroke-width="0.3"/>
</svg>
