<svg width="25" height="21" viewBox="0 0 25 21" fill="none" xmlns="http://www.w3.org/2000/svg">
<path d="M0.451263 14.4004C0.541263 14.0304 0.561261 13.6604 0.671261 13.3004C1.18126 11.4804 2.27126 10.1304 3.93126 9.23036C4.07126 9.15036 4.15126 9.17036 4.27126 9.28036C5.08126 10.0304 6.02126 10.4504 7.14126 10.3704C7.64126 10.3304 8.11126 10.1804 8.54126 9.94036C8.69126 9.86036 8.76126 9.86036 8.85126 10.0204C8.93126 10.1604 9.03126 10.2904 9.14126 10.4104C9.28126 10.5604 9.24126 10.6204 9.07126 10.7004C8.06126 11.1504 7.17126 11.7804 6.42126 12.6004C5.32126 13.8104 4.63126 15.2104 4.39126 16.8304C4.36126 17.0304 4.31126 17.0904 4.09126 17.0204C2.77126 16.6104 1.60126 15.9604 0.56126 15.0504C0.53126 15.0204 0.491263 15.0004 0.451263 14.9704C0.451263 14.7804 0.451263 14.6004 0.451263 14.4104V14.4004Z" fill="#3F5F90"/>
<path d="M12.3313 20.8803C9.57128 20.8503 7.16127 19.9303 5.08127 18.1303C5.01127 18.0703 4.96127 18.0104 4.96127 17.9004C5.11127 14.9904 6.46127 12.8403 9.02127 11.4503C9.16127 11.3703 9.22127 11.4303 9.31127 11.5103C10.0213 12.1803 10.8313 12.6403 11.8113 12.7703C12.9413 12.9203 13.9413 12.5903 14.8513 11.9203C15.0413 11.7803 15.2113 11.6303 15.3813 11.4703C15.4613 11.3903 15.5213 11.3903 15.6213 11.4403C17.7513 12.5703 19.0713 14.3004 19.5513 16.6604C19.6313 17.0504 19.6613 17.4503 19.6813 17.8503C19.6813 17.9703 19.6513 18.0403 19.5613 18.1203C18.0713 19.4103 16.3513 20.2703 14.4113 20.6503C13.7213 20.7903 13.0213 20.8403 12.3313 20.8503V20.8803Z" fill="#3F5F90"/>
<path d="M12.3513 1.11041C14.3113 1.11041 16.0513 2.60041 16.3413 4.52041C16.5013 5.55041 16.2713 6.53041 15.8713 7.47041C15.5613 8.21041 15.1313 8.88041 14.5613 9.44041C14.2313 9.77041 13.8513 10.0604 13.4213 10.2504C12.3813 10.7004 11.4313 10.5204 10.5613 9.85041C9.37126 8.93041 8.70127 7.68041 8.37127 6.23041C8.08127 4.96041 8.28127 3.78041 9.07127 2.73041C9.75127 1.83041 10.6613 1.30041 11.7913 1.15041C11.9713 1.12041 12.1613 1.11041 12.3413 1.11041H12.3513Z" fill="#3F5F90"/>
<path d="M24.1813 14.7404C24.2313 14.8904 24.1013 15.0004 23.9613 15.1204C22.9413 15.9904 21.7913 16.6104 20.5113 17.0104C20.3113 17.0704 20.2612 17.0304 20.2312 16.8504C20.0812 15.7704 19.7113 14.7804 19.1513 13.8504C18.2913 12.4404 17.0912 11.4104 15.6012 10.7104C15.3512 10.5904 15.3513 10.5904 15.5113 10.3804C15.6013 10.2604 15.7012 10.1504 15.7712 10.0304C15.8512 9.89036 15.9213 9.86036 16.0813 9.95036C17.5513 10.7604 19.1313 10.4304 20.3213 9.33036C20.4713 9.19036 20.5813 9.18036 20.7513 9.27036C22.6513 10.3304 23.7613 11.9304 24.1113 14.0704C24.1413 14.2704 24.1512 14.4804 24.1712 14.7504L24.1813 14.7404Z" fill="#3F5F90"/>
<path d="M6.79127 0.050354C7.88127 0.090354 8.76127 0.440354 9.46127 1.19035C9.56127 1.30035 9.55127 1.34035 9.43127 1.43035C8.37127 2.25035 7.77127 3.34035 7.60127 4.66035C7.51127 5.36035 7.60128 6.06035 7.80128 6.74035C7.89128 7.05035 7.98128 7.36035 8.12128 7.66035C8.18128 7.79035 8.16127 7.86035 8.03127 7.93035C7.17127 8.42035 6.16127 8.34035 5.33127 7.68035C4.29127 6.87035 3.72127 5.77035 3.42127 4.52035C2.99127 2.67035 3.93127 0.920354 5.71127 0.260354C5.85127 0.210354 5.99127 0.170354 6.13127 0.150354C6.37127 0.110354 6.62127 0.080354 6.78127 0.060354L6.79127 0.050354Z" fill="#3F5F90"/>
<path d="M21.3113 3.62038C21.2713 4.83038 20.8513 5.90038 20.1213 6.86038C19.6513 7.48038 19.0813 7.97038 18.3013 8.17038C17.6913 8.33038 17.1312 8.21038 16.5912 7.92038C16.4612 7.85038 16.4613 7.78038 16.5113 7.66038C16.7313 7.16038 16.8713 6.65038 16.9713 6.11038C17.2213 4.69038 16.9213 3.41038 16.0513 2.26038C15.8113 1.94038 15.5213 1.66038 15.2013 1.42038C15.0813 1.34038 15.0913 1.29038 15.1813 1.20038C15.8013 0.550381 16.5513 0.160381 17.4513 0.090381C18.9713 -0.029619 20.1013 0.610381 20.8813 1.89038C21.2013 2.41038 21.3413 3.00038 21.3313 3.61038L21.3113 3.62038Z" fill="#3F5F90"/>
</svg>
